<?xml version="1.0" encoding="utf-8"?>
<!-- Generator: Adobe Illustrator 27.3.1, SVG Export Plug-In . SVG Version: 6.00 Build 0)  -->
<svg version="1.1" id="Layer_1" xmlns="http://www.w3.org/2000/svg" xmlns:xlink="http://www.w3.org/1999/xlink" x="0px" y="0px"
	 viewBox="0 0 982 296" style="enable-background:new 0 0 982 296;" xml:space="preserve">
<style type="text/css">
	.st0{fill:#FFFFFF;}
	.st1{fill:#226DB4;}
</style>
<g>
	<g>
		<path d="M359.2,140.8h28.2l33.1,83.7l32.9-83.7h27.5v114.9h-20.6v-87.6l-36.2,87.6h-9.9l-35-87.6v87.6h-20.1V140.8z"/>
		<path d="M578.7,237.4c-7,14.8-22.1,19.9-37.5,19.9c-26.5,0-43.2-17.7-43.2-43.9c0-24.6,17-43.6,42.3-43.6
			c27.2,0,40.4,15.9,40.4,48.3h-62.2c0,14.2,8.2,24.6,23.5,24.6c9.1,0,16.6-3.7,21-12.2L578.7,237.4z M560.7,204.9
			c-0.6-12.7-8.3-20.5-20.2-20.5c-12.6,0-20,8.9-21.7,20.5H560.7z"/>
		<path d="M672,237.4c-7,14.8-22.1,19.9-37.5,19.9c-26.5,0-43.2-17.7-43.2-43.9c0-24.6,17-43.6,42.3-43.6
			c27.2,0,40.4,15.9,40.4,48.3h-62.2c0,14.2,8.2,24.6,23.5,24.6c9.1,0,16.6-3.7,21-12.2L672,237.4z M653.9,204.9
			c-0.6-12.7-8.3-20.5-20.2-20.5c-12.6,0-20,8.9-21.7,20.5H653.9z"/>
		<path d="M732.6,255.1c-4.3,1.3-8.8,2-13.8,2c-16,0-25.5-8.3-25.5-25v-45.7H682v-14.8h11.3v-17.3l20.1-8.7v26.1h18.5v14.8h-18.5
			v43.9c0,6.6,2.8,10.7,10.2,10.7c2.8,0,6-0.6,9-1.6V255.1z"/>
		<path d="M760,136.1c6.5,0,11.7,4.8,11.7,11.5c0,6.6-5,11.4-11.6,11.4c-6.5,0-12-4.9-12-11.5C748.1,140.8,753.5,136.1,760,136.1z
			 M749.9,171.8H770v83.9h-20.1V171.8z"/>
		<path d="M792.7,171.6h20.1V185c5.4-10.4,16.7-15.1,28.4-15.1c20.2,0,29.3,14.2,29.3,33.3v52.6h-20.4v-50.6
			c0-11.8-5.3-18.7-17.2-18.7c-12.6,0-20.1,7.8-20.1,19.9v49.4h-20.1V171.6z"/>
		<path d="M904.6,259.4c4.2,9.3,13.9,12.1,23.2,12.1c14.9,0,23.9-7.1,23.9-22.4v-12.6c-5.7,9.7-17,15.8-28.2,15.8
			c-23.8,0-37.6-18.7-37.6-40.6c0-22.6,14.8-41.9,38.1-41.9c11.4,0,21.8,4.6,27.7,14.7v-12.9h20.2v77.8c0,26.4-19.8,37.1-44.1,37.1
			c-15.6,0-32.3-4.4-39.1-20.2L904.6,259.4z M952.5,210.6c0-14.4-7.8-25.3-23-25.3c-16.1,0-22.9,12.2-22.9,26.8
			c0,13.1,8.2,24.7,22.2,24.7C944.5,236.8,952.5,225.2,952.5,210.6z"/>
	</g>
	<g>
		<path d="M359.3,104.4l37-53.4h-33.2V40.5h50.6v5.2l-36.1,53.4h35v10.5h-53.3V104.4z"/>
		<path d="M445.4,58c15.4,0,27.2,10.8,27.2,26.3c0,15.9-12.4,26.4-27.7,26.4c-15.4,0-27.8-10.7-27.8-26.1
			C417.1,68.6,430.2,58,445.4,58z M459.6,84.3c0-9.3-4.7-17.1-14.7-17.1c-10.2,0-14.3,8.1-14.3,17.4c0,9,4.8,16.6,14.6,16.6
			C455.3,101.3,459.6,93.2,459.6,84.3z"/>
		<path d="M481.4,36.1h12.1v31c3.3-6.3,9.9-9.1,16.9-9.1c12.1,0,18.2,8.5,18.2,20v31.7h-12.2V79.2c0-7.3-3.8-11.3-10.8-11.3
			c-7.8,0-12.1,4.8-12.1,12v29.7h-12.1V36.1z"/>
		<path d="M564.7,58c15.4,0,27.2,10.8,27.2,26.3c0,15.9-12.4,26.4-27.7,26.4c-15.4,0-27.8-10.7-27.8-26.1
			C536.4,68.6,549.5,58,564.7,58z M578.9,84.3c0-9.3-4.7-17.1-14.7-17.1c-10.2,0-14.3,8.1-14.3,17.4c0,9,4.8,16.6,14.6,16.6
			C574.7,101.3,578.9,93.2,578.9,84.3z"/>
	</g>
</g>
<path class="st1" d="M254.4,107.6h-20.9l11.4-17.9c5.8-9.1,7.7-19.8,5.4-30.3c-2.3-10.5-8.6-19.5-17.7-25.3
	C213.9,22.2,189,27.7,177,46.4l-27.1,42.5l-27.3-42.8C110.7,27.4,85.7,21.9,67,33.9c-9.1,5.8-15.4,14.8-17.7,25.3
	c-2.3,10.5-0.4,21.3,5.4,30.3l11.6,18.1H45c-22.2,0-40.3,18.1-40.3,40.3s18.1,40.3,40.3,40.3h21.4l-11.6,18.1
	c-5.8,9.1-7.7,19.8-5.4,30.3c2.3,10.5,8.6,19.5,17.7,25.3c6.7,4.3,14.2,6.3,21.6,6.3c13.3,0,26.3-6.6,34-18.6l27.2-42.5l27.3,42.8
	c7.7,12,20.7,18.6,34,18.6c7.4,0,14.9-2,21.6-6.3c9.1-5.8,15.4-14.8,17.7-25.3c2.3-10.5,0.4-21.3-5.4-30.3l-11.8-18.4h21.3
	c22.2,0,40.3-18.1,40.3-40.3C294.7,125.7,276.6,107.6,254.4,107.6z M108.3,240.4c-6.9,10.8-21.3,13.9-32.1,7.1
	c-5.2-3.3-8.8-8.5-10.2-14.6c-1.3-6.1-0.2-12.3,3.1-17.5L97.5,171H45c-12.8,0-23.2-10.4-23.2-23.2s10.4-23.2,23.2-23.2h52.5
	L69.1,80.3c-3.3-5.2-4.4-11.4-3.1-17.5c1.3-6.1,4.9-11.2,10.2-14.6c10.8-6.9,25.2-3.7,32.1,7.1l34.2,53.4c0.2,0.3,0.4,0.7,0.6,1
	l24.4,38.1L143,186.1c-0.3,0.4-0.5,0.8-0.7,1.2L108.3,240.4z M254.4,171H202l28.6,44.7c3.3,5.2,4.4,11.4,3.1,17.5
	c-1.3,6.1-4.9,11.2-10.2,14.6c-10.8,6.9-25.2,3.7-32.1-7.1l-31.5-49.5l27.7-43.4L160,104.7l31.4-49.1c6.9-10.8,21.3-13.9,32.1-7.1
	c5.2,3.3,8.8,8.5,10.2,14.6c1.3,6.1,0.2,12.3-3.1,17.5l-28.2,44.1h52c12.8,0,23.2,10.4,23.2,23.2S267.2,171,254.4,171z"/>
</svg>
